<svg xmlns="http://www.w3.org/2000/svg" viewBox="0 0 600 400">
  <!-- Grid Lines -->
  <g stroke="#EDF2F2" stroke-width="1" opacity="0.1">
    <line x1="50" y1="50" x2="550" y2="50" />
    <line x1="50" y1="150" x2="550" y2="150" />
    <line x1="50" y1="250" x2="550" y2="250" />
    <line x1="50" y1="350" x2="550" y2="350" />
    
    <line x1="150" y1="50" x2="150" y2="350" />
    <line x1="250" y1="50" x2="250" y2="350" />
    <line x1="350" y1="50" x2="350" y2="350" />
    <line x1="450" y1="50" x2="450" y2="350" />
  </g>

  <!-- Market Segments -->
  <g>
    <!-- Segment 1 - Primary -->
    <rect x="110" y="110" width="80" height="80" fill="#60D7A5" opacity="0.2" />
    <rect x="120" y="120" width="60" height="60" fill="#60D7A5" opacity="0.4" />
    <rect x="130" y="130" width="40" height="40" fill="#60D7A5" opacity="0.6" />
    
    <!-- Segment 2 - Secondary -->
    <rect x="300" y="200" width="100" height="100" fill="#6173D7" opacity="0.2" />
    <rect x="315" y="215" width="70" height="70" fill="#6173D7" opacity="0.4" />
    <rect x="330" y="230" width="40" height="40" fill="#6173D7" opacity="0.6" />
    
    <!-- Segment 3 - Destructive -->
    <rect x="420" y="120" width="60" height="60" fill="#D96169" opacity="0.2" />
    <rect x="430" y="130" width="40" height="40" fill="#D96169" opacity="0.4" />
    <rect x="440" y="140" width="20" height="20" fill="#D96169" opacity="0.6" />
  </g>

  <!-- Connection Lines -->
  <g stroke="#EDF2F2" stroke-width="2" stroke-dasharray="4" opacity="0.4">
    <line x1="150" y1="150" x2="350" y2="250" />
    <line x1="350" y1="250" x2="450" y2="150" />
    <line x1="150" y1="150" x2="450" y2="150" />
  </g>

  <!-- Data Points - Alternating colors -->
  <g>
    <rect x="198" y="98" width="4" height="4" fill="#60D7A5" />
    <rect x="298" y="198" width="4" height="4" fill="#6173D7" />
    <rect x="398" y="298" width="4" height="4" fill="#D96169" />
    <rect x="498" y="198" width="4" height="4" fill="#60D7A5" />
    <rect x="248" y="148" width="4" height="4" fill="#6173D7" />
  </g>

  <!-- Magnifying Glass -->
  <g transform="translate(100, 300) rotate(-30)">
    <circle cx="0" cy="0" r="25" fill="none" stroke="#EDF2F2" stroke-width="4"/>
    <line x1="20" y1="20" x2="40" y2="40" stroke="#EDF2F2" stroke-width="4" stroke-linecap="round"/>
  </g>

  <!-- Growth Arrow -->
  <path d="M500,100 L550,50 L500,50 L500,100" fill="#60D7A5" />
</svg>
